<?xml version="1.0" encoding="UTF-8" standalone="no"?>
<!DOCTYPE svg PUBLIC "-//W3C//DTD SVG 1.1//EN"
 "http://www.w3.org/Graphics/SVG/1.1/DTD/svg11.dtd">
<!-- Generated by graphviz version 2.36.0 (20140111.2315)
 -->
<!-- Title: G Pages: 1 -->
<svg width="623pt" height="1778pt"
 viewBox="0.00 0.00 623.00 1778.00" xmlns="http://www.w3.org/2000/svg" xmlns:xlink="http://www.w3.org/1999/xlink">
<g id="graph0" class="graph" transform="scale(1 1) rotate(0) translate(4 1774)">
<title>G</title>
<polygon fill="white" stroke="none" points="-4,4 -4,-1774 619,-1774 619,4 -4,4"/>
<g id="clust1" class="cluster"><title>cluster_Global</title>
<path fill="none" stroke="gray" d="M20,-44C20,-44 595,-44 595,-44 601,-44 607,-50 607,-56 607,-56 607,-1750 607,-1750 607,-1756 601,-1762 595,-1762 595,-1762 20,-1762 20,-1762 14,-1762 8,-1756 8,-1750 8,-1750 8,-56 8,-56 8,-50 14,-44 20,-44"/>
<text text-anchor="middle" x="307.5" y="-1749.2" font-family="Times,serif" font-size="11.00" fill="gray">Global</text>
</g>
<g id="clust2" class="cluster"><title>cluster_\Parse</title>
<path fill="none" stroke="gray" d="M28,-52C28,-52 587,-52 587,-52 593,-52 599,-58 599,-64 599,-64 599,-1722 599,-1722 599,-1728 593,-1734 587,-1734 587,-1734 28,-1734 28,-1734 22,-1734 16,-1728 16,-1722 16,-1722 16,-64 16,-64 16,-58 22,-52 28,-52"/>
<text text-anchor="middle" x="307.5" y="-1721.2" font-family="Times,serif" font-size="11.00" fill="gray">Parse</text>
</g>
<g id="clust3" class="cluster"><title>cluster_\Parse\Internal</title>
<path fill="none" stroke="gray" d="M36,-970C36,-970 579,-970 579,-970 585,-970 591,-976 591,-982 591,-982 591,-1354 591,-1354 591,-1360 585,-1366 579,-1366 579,-1366 36,-1366 36,-1366 30,-1366 24,-1360 24,-1354 24,-1354 24,-982 24,-982 24,-976 30,-970 36,-970"/>
<text text-anchor="middle" x="307.5" y="-1353.2" font-family="Times,serif" font-size="11.00" fill="gray">Internal</text>
</g>
<g id="clust4" class="cluster"><title>cluster_\Parse\HttpClients</title>
<path fill="none" stroke="gray" d="M215,-1472C215,-1472 575,-1472 575,-1472 581,-1472 587,-1478 587,-1484 587,-1484 587,-1694 587,-1694 587,-1700 581,-1706 575,-1706 575,-1706 215,-1706 215,-1706 209,-1706 203,-1700 203,-1694 203,-1694 203,-1484 203,-1484 203,-1478 209,-1472 215,-1472"/>
<text text-anchor="middle" x="395" y="-1693.2" font-family="Times,serif" font-size="11.00" fill="gray">HttpClients</text>
</g>
<!-- \\Parse\\Internal\\AddUniqueOperation -->
<g id="node1" class="node"><title>\\Parse\\Internal\\AddUniqueOperation</title>
<polygon fill="none" stroke="black" points="569,-1338 431,-1338 431,-1302 569,-1302 569,-1338"/>
<text text-anchor="middle" x="500" y="-1317.2" font-family="Courier,monospace" font-size="11.00">AddUniqueOperation</text>
</g>
<!-- \\Parse\\Internal\\FieldOperation -->
<g id="node8" class="node"><title>\\Parse\\Internal\\FieldOperation</title>
<polygon fill="none" stroke="black" points="318.5,-1149 207.5,-1149 207.5,-1113 318.5,-1113 318.5,-1149"/>
<text text-anchor="middle" x="263" y="-1128.2" font-family="Courier,monospace" font-size="11.00">FieldOperation</text>
</g>
<!-- \\Parse\\Internal\\AddUniqueOperation&#45;&gt;\\Parse\\Internal\\FieldOperation -->
<g id="edge1" class="edge"><title>\\Parse\\Internal\\AddUniqueOperation&#45;&gt;\\Parse\\Internal\\FieldOperation</title>
<path fill="none" stroke="black" stroke-dasharray="1,5" d="M430.95,-1303.95C424.86,-1300.91 419.085,-1297.3 414,-1293 360.561,-1247.84 396.17,-1197.29 342,-1153 337.779,-1149.55 333.049,-1146.64 328.06,-1144.18"/>
<polygon fill="none" stroke="black" points="329.426,-1140.96 318.855,-1140.24 326.669,-1147.4 329.426,-1140.96"/>
</g>
<!-- \\Parse\\Internal\\ParseRelationOperation -->
<g id="node2" class="node"><title>\\Parse\\Internal\\ParseRelationOperation</title>
<polygon fill="none" stroke="black" points="582.5,-1284 417.5,-1284 417.5,-1248 582.5,-1248 582.5,-1284"/>
<text text-anchor="middle" x="500" y="-1263.2" font-family="Courier,monospace" font-size="11.00">ParseRelationOperation</text>
</g>
<!-- \\Parse\\Internal\\ParseRelationOperation&#45;&gt;\\Parse\\Internal\\FieldOperation -->
<g id="edge4" class="edge"><title>\\Parse\\Internal\\ParseRelationOperation&#45;&gt;\\Parse\\Internal\\FieldOperation</title>
<path fill="none" stroke="black" stroke-dasharray="1,5" d="M430.128,-1247.94C424.475,-1245.33 419.015,-1242.36 414,-1239 372.597,-1211.24 383.851,-1180.08 342,-1153 337.681,-1150.21 333.005,-1147.76 328.161,-1145.62"/>
<polygon fill="none" stroke="black" points="329.277,-1142.3 318.691,-1141.88 326.703,-1148.81 329.277,-1142.3"/>
</g>
<!-- \\Parse\\Internal\\DeleteOperation -->
<g id="node3" class="node"><title>\\Parse\\Internal\\DeleteOperation</title>
<polygon fill="none" stroke="black" points="559,-1230 441,-1230 441,-1194 559,-1194 559,-1230"/>
<text text-anchor="middle" x="500" y="-1209.2" font-family="Courier,monospace" font-size="11.00">DeleteOperation</text>
</g>
<!-- \\Parse\\Internal\\DeleteOperation&#45;&gt;\\Parse\\Internal\\FieldOperation -->
<g id="edge9" class="edge"><title>\\Parse\\Internal\\DeleteOperation&#45;&gt;\\Parse\\Internal\\FieldOperation</title>
<path fill="none" stroke="black" stroke-dasharray="1,5" d="M440.636,-1194.4C431.659,-1191.43 422.54,-1188.24 414,-1185 381.262,-1172.57 374.936,-1164.89 342,-1153 337.716,-1151.45 333.267,-1149.94 328.765,-1148.49"/>
<polygon fill="none" stroke="black" points="329.455,-1145.04 318.866,-1145.4 327.369,-1151.72 329.455,-1145.04"/>
</g>
<!-- \\Parse\\Internal\\SetOperation -->
<g id="node4" class="node"><title>\\Parse\\Internal\\SetOperation</title>
<polygon fill="none" stroke="black" points="549,-1176 451,-1176 451,-1140 549,-1140 549,-1176"/>
<text text-anchor="middle" x="500" y="-1155.2" font-family="Courier,monospace" font-size="11.00">SetOperation</text>
</g>
<!-- \\Parse\\Internal\\SetOperation&#45;&gt;\\Parse\\Internal\\FieldOperation -->
<g id="edge10" class="edge"><title>\\Parse\\Internal\\SetOperation&#45;&gt;\\Parse\\Internal\\FieldOperation</title>
<path fill="none" stroke="black" stroke-dasharray="1,5" d="M450.877,-1152.47C415.623,-1148.42 367.387,-1142.88 328.752,-1138.44"/>
<polygon fill="none" stroke="black" points="328.975,-1134.94 318.641,-1137.28 328.176,-1141.9 328.975,-1134.94"/>
</g>
<!-- \\Parse\\Internal\\RemoveOperation -->
<g id="node5" class="node"><title>\\Parse\\Internal\\RemoveOperation</title>
<polygon fill="none" stroke="black" points="559,-1122 441,-1122 441,-1086 559,-1086 559,-1122"/>
<text text-anchor="middle" x="500" y="-1101.2" font-family="Courier,monospace" font-size="11.00">RemoveOperation</text>
</g>
<!-- \\Parse\\Internal\\RemoveOperation&#45;&gt;\\Parse\\Internal\\FieldOperation -->
<g id="edge15" class="edge"><title>\\Parse\\Internal\\RemoveOperation&#45;&gt;\\Parse\\Internal\\FieldOperation</title>
<path fill="none" stroke="black" stroke-dasharray="1,5" d="M440.91,-1110.67C406.891,-1114.58 363.855,-1119.53 328.748,-1123.56"/>
<polygon fill="none" stroke="black" points="328.134,-1120.11 318.599,-1124.73 328.933,-1127.06 328.134,-1120.11"/>
</g>
<!-- \\Parse\\Internal\\AddOperation -->
<g id="node6" class="node"><title>\\Parse\\Internal\\AddOperation</title>
<polygon fill="none" stroke="black" points="549,-1068 451,-1068 451,-1032 549,-1032 549,-1068"/>
<text text-anchor="middle" x="500" y="-1047.2" font-family="Courier,monospace" font-size="11.00">AddOperation</text>
</g>
<!-- \\Parse\\Internal\\AddOperation&#45;&gt;\\Parse\\Internal\\FieldOperation -->
<g id="edge20" class="edge"><title>\\Parse\\Internal\\AddOperation&#45;&gt;\\Parse\\Internal\\FieldOperation</title>
<path fill="none" stroke="black" stroke-dasharray="1,5" d="M450.581,-1064.36C438.54,-1068.21 425.725,-1072.55 414,-1077 381.262,-1089.43 374.936,-1097.11 342,-1109 337.716,-1110.55 333.267,-1112.06 328.765,-1113.51"/>
<polygon fill="none" stroke="black" points="327.369,-1110.28 318.866,-1116.6 329.455,-1116.96 327.369,-1110.28"/>
</g>
<!-- \\Parse\\Internal\\IncrementOperation -->
<g id="node7" class="node"><title>\\Parse\\Internal\\IncrementOperation</title>
<polygon fill="none" stroke="black" points="569,-1014 431,-1014 431,-978 569,-978 569,-1014"/>
<text text-anchor="middle" x="500" y="-993.2" font-family="Courier,monospace" font-size="11.00">IncrementOperation</text>
</g>
<!-- \\Parse\\Internal\\IncrementOperation&#45;&gt;\\Parse\\Internal\\FieldOperation -->
<g id="edge23" class="edge"><title>\\Parse\\Internal\\IncrementOperation&#45;&gt;\\Parse\\Internal\\FieldOperation</title>
<path fill="none" stroke="black" stroke-dasharray="1,5" d="M430.999,-1013.66C425.037,-1016.37 419.273,-1019.46 414,-1023 372.597,-1050.76 383.851,-1081.92 342,-1109 337.681,-1111.79 333.005,-1114.24 328.161,-1116.38"/>
<polygon fill="none" stroke="black" points="326.703,-1113.19 318.691,-1120.12 329.277,-1119.7 326.703,-1113.19"/>
</g>
<!-- \\Parse\\Internal\\Encodable -->
<g id="node9" class="node"><title>\\Parse\\Internal\\Encodable</title>
<polygon fill="none" stroke="black" points="109.5,-1014 32.5,-1014 32.5,-978 109.5,-978 109.5,-1014"/>
<text text-anchor="middle" x="71" y="-993.2" font-family="Courier,monospace" font-size="11.00">Encodable</text>
</g>
<!-- \\Parse\\Internal\\FieldOperation&#45;&gt;\\Parse\\Internal\\Encodable -->
<g id="edge25" class="edge"><title>\\Parse\\Internal\\FieldOperation&#45;&gt;\\Parse\\Internal\\Encodable</title>
<path fill="none" stroke="black" d="M207.226,-1119.45C199.151,-1116.65 191.152,-1113.21 184,-1109 145.94,-1086.58 111.725,-1048.07 91.403,-1022.33"/>
<polygon fill="none" stroke="black" points="93.9461,-1019.9 85.0585,-1014.13 88.4098,-1024.18 93.9461,-1019.9"/>
</g>
<!-- \\Parse\\HttpClients\\ParseStream -->
<g id="node10" class="node"><title>\\Parse\\HttpClients\\ParseStream</title>
<polygon fill="none" stroke="black" points="545.5,-1678 454.5,-1678 454.5,-1642 545.5,-1642 545.5,-1678"/>
<text text-anchor="middle" x="500" y="-1657.2" font-family="Courier,monospace" font-size="11.00">ParseStream</text>
</g>
<!-- \\Parse\\HttpClients\\ParseCurl -->
<g id="node11" class="node"><title>\\Parse\\HttpClients\\ParseCurl</title>
<polygon fill="none" stroke="black" points="538.5,-1624 461.5,-1624 461.5,-1588 538.5,-1588 538.5,-1624"/>
<text text-anchor="middle" x="500" y="-1603.2" font-family="Courier,monospace" font-size="11.00">ParseCurl</text>
</g>
<!-- \\Parse\\HttpClients\\ParseStreamHttpClient -->
<g id="node12" class="node"><title>\\Parse\\HttpClients\\ParseStreamHttpClient</title>
<polygon fill="none" stroke="black" points="579,-1570 421,-1570 421,-1534 579,-1534 579,-1570"/>
<text text-anchor="middle" x="500" y="-1549.2" font-family="Courier,monospace" font-size="11.00">ParseStreamHttpClient</text>
</g>
<!-- \\Parse\\HttpClients\\ParseHttpable -->
<g id="node14" class="node"><title>\\Parse\\HttpClients\\ParseHttpable</title>
<polygon fill="none" stroke="black" points="315,-1544 211,-1544 211,-1508 315,-1508 315,-1544"/>
<text text-anchor="middle" x="263" y="-1523.2" font-family="Courier,monospace" font-size="11.00">ParseHttpable</text>
</g>
<!-- \\Parse\\HttpClients\\ParseStreamHttpClient&#45;&gt;\\Parse\\HttpClients\\ParseHttpable -->
<g id="edge11" class="edge"><title>\\Parse\\HttpClients\\ParseStreamHttpClient&#45;&gt;\\Parse\\HttpClients\\ParseHttpable</title>
<path fill="none" stroke="black" stroke-dasharray="1,5" d="M420.748,-1543.34C389.695,-1539.91 354.509,-1536.01 325.353,-1532.79"/>
<polygon fill="none" stroke="black" points="325.633,-1529.3 315.309,-1531.68 324.863,-1536.26 325.633,-1529.3"/>
</g>
<!-- \\Parse\\HttpClients\\ParseCurlHttpClient -->
<g id="node13" class="node"><title>\\Parse\\HttpClients\\ParseCurlHttpClient</title>
<polygon fill="none" stroke="black" points="572.5,-1516 427.5,-1516 427.5,-1480 572.5,-1480 572.5,-1516"/>
<text text-anchor="middle" x="500" y="-1495.2" font-family="Courier,monospace" font-size="11.00">ParseCurlHttpClient</text>
</g>
<!-- \\Parse\\HttpClients\\ParseCurlHttpClient&#45;&gt;\\Parse\\HttpClients\\ParseHttpable -->
<g id="edge16" class="edge"><title>\\Parse\\HttpClients\\ParseCurlHttpClient&#45;&gt;\\Parse\\HttpClients\\ParseHttpable</title>
<path fill="none" stroke="black" stroke-dasharray="1,5" d="M427.215,-1506.55C394.715,-1510.43 356.686,-1514.96 325.517,-1518.67"/>
<polygon fill="none" stroke="black" points="324.743,-1515.24 315.227,-1519.9 325.571,-1522.19 324.743,-1515.24"/>
</g>
<!-- \\Parse\\ParseClient -->
<g id="node15" class="node"><title>\\Parse\\ParseClient</title>
<polygon fill="none" stroke="black" points="545.5,-1436 454.5,-1436 454.5,-1400 545.5,-1400 545.5,-1436"/>
<text text-anchor="middle" x="500" y="-1415.2" font-family="Courier,monospace" font-size="11.00">ParseClient</text>
</g>
<!-- \\Parse\\ParseUser -->
<g id="node16" class="node"><title>\\Parse\\ParseUser</title>
<polygon fill="none" stroke="black" points="538.5,-366 461.5,-366 461.5,-330 538.5,-330 538.5,-366"/>
<text text-anchor="middle" x="500" y="-345.2" font-family="Courier,monospace" font-size="11.00">ParseUser</text>
</g>
<!-- \\Parse\\ParseObject -->
<g id="node20" class="node"><title>\\Parse\\ParseObject</title>
<polygon fill="none" stroke="black" points="308.5,-826 217.5,-826 217.5,-790 308.5,-790 308.5,-826"/>
<text text-anchor="middle" x="263" y="-805.2" font-family="Courier,monospace" font-size="11.00">ParseObject</text>
</g>
<!-- \\Parse\\ParseUser&#45;&gt;\\Parse\\ParseObject -->
<g id="edge2" class="edge"><title>\\Parse\\ParseUser&#45;&gt;\\Parse\\ParseObject</title>
<path fill="none" stroke="black" d="M461.159,-351.271C444.397,-354.679 425.835,-361.489 414,-375 293.248,-512.852 460.973,-641.609 342,-781 335.717,-788.362 327.32,-793.718 318.362,-797.615"/>
<polygon fill="none" stroke="black" points="317.021,-794.38 308.889,-801.171 319.481,-800.933 317.021,-794.38"/>
</g>
<!-- \\Parse\\ParseInstallation -->
<g id="node17" class="node"><title>\\Parse\\ParseInstallation</title>
<polygon fill="none" stroke="black" points="565.5,-960 434.5,-960 434.5,-924 565.5,-924 565.5,-960"/>
<text text-anchor="middle" x="500" y="-939.2" font-family="Courier,monospace" font-size="11.00">ParseInstallation</text>
</g>
<!-- \\Parse\\ParseInstallation&#45;&gt;\\Parse\\ParseObject -->
<g id="edge3" class="edge"><title>\\Parse\\ParseInstallation&#45;&gt;\\Parse\\ParseObject</title>
<path fill="none" stroke="black" d="M434.559,-923.903C427.493,-921.223 420.509,-918.254 414,-915 368.688,-892.347 322.034,-856.773 293.039,-832.934"/>
<polygon fill="none" stroke="black" points="294.915,-829.942 284.987,-826.241 290.44,-835.325 294.915,-829.942"/>
</g>
<!-- \\Parse\\ParseApp -->
<g id="node18" class="node"><title>\\Parse\\ParseApp</title>
<polygon fill="none" stroke="black" points="535.5,-906 464.5,-906 464.5,-870 535.5,-870 535.5,-906"/>
<text text-anchor="middle" x="500" y="-885.2" font-family="Courier,monospace" font-size="11.00">ParseApp</text>
</g>
<!-- \\Parse\\ParseGeoPoint -->
<g id="node19" class="node"><title>\\Parse\\ParseGeoPoint</title>
<polygon fill="none" stroke="black" points="315,-962 211,-962 211,-926 315,-926 315,-962"/>
<text text-anchor="middle" x="263" y="-941.2" font-family="Courier,monospace" font-size="11.00">ParseGeoPoint</text>
</g>
<!-- \\Parse\\ParseGeoPoint&#45;&gt;\\Parse\\Internal\\Encodable -->
<g id="edge5" class="edge"><title>\\Parse\\ParseGeoPoint&#45;&gt;\\Parse\\Internal\\Encodable</title>
<path fill="none" stroke="black" stroke-dasharray="1,5" d="M210.834,-958.003C182.445,-965.773 147.368,-975.373 119.575,-982.979"/>
<polygon fill="none" stroke="black" points="118.413,-979.669 109.691,-985.684 120.261,-986.42 118.413,-979.669"/>
</g>
<!-- \\Parse\\ParseObject&#45;&gt;\\Parse\\Internal\\Encodable -->
<g id="edge6" class="edge"><title>\\Parse\\ParseObject&#45;&gt;\\Parse\\Internal\\Encodable</title>
<path fill="none" stroke="black" stroke-dasharray="1,5" d="M243.782,-826.026C209.822,-859.629 136.763,-931.918 97.7657,-970.505"/>
<polygon fill="none" stroke="black" points="95.0887,-968.231 90.442,-977.752 100.012,-973.206 95.0887,-968.231"/>
</g>
<!-- \\Parse\\ParseConfig -->
<g id="node21" class="node"><title>\\Parse\\ParseConfig</title>
<polygon fill="none" stroke="black" points="545.5,-852 454.5,-852 454.5,-816 545.5,-816 545.5,-852"/>
<text text-anchor="middle" x="500" y="-831.2" font-family="Courier,monospace" font-size="11.00">ParseConfig</text>
</g>
<!-- \\Parse\\ParsePush -->
<g id="node22" class="node"><title>\\Parse\\ParsePush</title>
<polygon fill="none" stroke="black" points="538.5,-798 461.5,-798 461.5,-762 538.5,-762 538.5,-798"/>
<text text-anchor="middle" x="500" y="-777.2" font-family="Courier,monospace" font-size="11.00">ParsePush</text>
</g>
<!-- \\Parse\\ParseSession -->
<g id="node23" class="node"><title>\\Parse\\ParseSession</title>
<polygon fill="none" stroke="black" points="549,-744 451,-744 451,-708 549,-708 549,-744"/>
<text text-anchor="middle" x="500" y="-723.2" font-family="Courier,monospace" font-size="11.00">ParseSession</text>
</g>
<!-- \\Parse\\ParseSession&#45;&gt;\\Parse\\ParseObject -->
<g id="edge7" class="edge"><title>\\Parse\\ParseSession&#45;&gt;\\Parse\\ParseObject</title>
<path fill="none" stroke="black" d="M450.724,-740.751C438.679,-744.591 425.827,-748.827 414,-753 381.622,-764.425 374.229,-769.16 342,-781 334.35,-783.811 326.249,-786.705 318.275,-789.507"/>
<polygon fill="none" stroke="black" points="316.938,-786.267 308.651,-792.868 319.245,-792.875 316.938,-786.267"/>
</g>
<!-- \\Parse\\ParseAggregateException -->
<g id="node24" class="node"><title>\\Parse\\ParseAggregateException</title>
<polygon fill="none" stroke="black" points="586,-96 414,-96 414,-60 586,-60 586,-96"/>
<text text-anchor="middle" x="500" y="-75.2" font-family="Courier,monospace" font-size="11.00">ParseAggregateException</text>
</g>
<!-- \\Parse\\ParseException -->
<g id="node35" class="node"><title>\\Parse\\ParseException</title>
<polygon fill="none" stroke="black" points="318.5,-96 207.5,-96 207.5,-60 318.5,-60 318.5,-96"/>
<text text-anchor="middle" x="263" y="-75.2" font-family="Courier,monospace" font-size="11.00">ParseException</text>
</g>
<!-- \\Parse\\ParseAggregateException&#45;&gt;\\Parse\\ParseException -->
<g id="edge8" class="edge"><title>\\Parse\\ParseAggregateException&#45;&gt;\\Parse\\ParseException</title>
<path fill="none" stroke="black" d="M413.827,-78C385.765,-78 355.035,-78 328.749,-78"/>
<polygon fill="none" stroke="black" points="328.533,-74.5001 318.533,-78 328.533,-81.5001 328.533,-74.5001"/>
</g>
<!-- \\Parse\\ParseHooks -->
<g id="node25" class="node"><title>\\Parse\\ParseHooks</title>
<polygon fill="none" stroke="black" points="542,-636 458,-636 458,-600 542,-600 542,-636"/>
<text text-anchor="middle" x="500" y="-615.2" font-family="Courier,monospace" font-size="11.00">ParseHooks</text>
</g>
<!-- \\Parse\\ParseQuery -->
<g id="node26" class="node"><title>\\Parse\\ParseQuery</title>
<polygon fill="none" stroke="black" points="542,-582 458,-582 458,-546 542,-546 542,-582"/>
<text text-anchor="middle" x="500" y="-561.2" font-family="Courier,monospace" font-size="11.00">ParseQuery</text>
</g>
<!-- \\Parse\\ParseMemoryStorage -->
<g id="node27" class="node"><title>\\Parse\\ParseMemoryStorage</title>
<polygon fill="none" stroke="black" points="569,-150 431,-150 431,-114 569,-114 569,-150"/>
<text text-anchor="middle" x="500" y="-129.2" font-family="Courier,monospace" font-size="11.00">ParseMemoryStorage</text>
</g>
<!-- \\Parse\\ParseStorageInterface -->
<g id="node40" class="node"><title>\\Parse\\ParseStorageInterface</title>
<polygon fill="none" stroke="black" points="342,-177 184,-177 184,-141 342,-141 342,-177"/>
<text text-anchor="middle" x="263" y="-156.2" font-family="Courier,monospace" font-size="11.00">ParseStorageInterface</text>
</g>
<!-- \\Parse\\ParseMemoryStorage&#45;&gt;\\Parse\\ParseStorageInterface -->
<g id="edge12" class="edge"><title>\\Parse\\ParseMemoryStorage&#45;&gt;\\Parse\\ParseStorageInterface</title>
<path fill="none" stroke="black" stroke-dasharray="1,5" d="M430.713,-139.846C406.307,-142.65 378.444,-145.851 352.575,-148.823"/>
<polygon fill="none" stroke="black" points="351.927,-145.375 342.392,-149.993 352.726,-152.329 351.927,-145.375"/>
</g>
<!-- \\Parse\\ParseCloud -->
<g id="node28" class="node"><title>\\Parse\\ParseCloud</title>
<polygon fill="none" stroke="black" points="542,-474 458,-474 458,-438 542,-438 542,-474"/>
<text text-anchor="middle" x="500" y="-453.2" font-family="Courier,monospace" font-size="11.00">ParseCloud</text>
</g>
<!-- \\Parse\\ParseACL -->
<g id="node29" class="node"><title>\\Parse\\ParseACL</title>
<polygon fill="none" stroke="black" points="298.5,-772 227.5,-772 227.5,-736 298.5,-736 298.5,-772"/>
<text text-anchor="middle" x="263" y="-751.2" font-family="Courier,monospace" font-size="11.00">ParseACL</text>
</g>
<!-- \\Parse\\ParseACL&#45;&gt;\\Parse\\Internal\\Encodable -->
<g id="edge13" class="edge"><title>\\Parse\\ParseACL&#45;&gt;\\Parse\\Internal\\Encodable</title>
<path fill="none" stroke="black" stroke-dasharray="1,5" d="M227.26,-760.066C212.6,-764.037 196.152,-770.515 184,-781 124.727,-832.143 92.4592,-922.474 79.2458,-968.044"/>
<polygon fill="none" stroke="black" points="75.8293,-967.265 76.5011,-977.839 82.5697,-969.154 75.8293,-967.265"/>
</g>
<!-- \\Parse\\ParseFile -->
<g id="node30" class="node"><title>\\Parse\\ParseFile</title>
<polygon fill="none" stroke="black" points="301.5,-718 224.5,-718 224.5,-682 301.5,-682 301.5,-718"/>
<text text-anchor="middle" x="263" y="-697.2" font-family="Courier,monospace" font-size="11.00">ParseFile</text>
</g>
<!-- \\Parse\\ParseFile&#45;&gt;\\Parse\\Internal\\Encodable -->
<g id="edge14" class="edge"><title>\\Parse\\ParseFile&#45;&gt;\\Parse\\Internal\\Encodable</title>
<path fill="none" stroke="black" stroke-dasharray="1,5" d="M224.441,-706.228C210.34,-710.176 195.065,-716.593 184,-727 112.661,-794.096 85.1684,-913.548 76.0039,-967.799"/>
<polygon fill="none" stroke="black" points="72.5366,-967.317 74.4079,-977.745 79.4482,-968.426 72.5366,-967.317"/>
</g>
<!-- \\Parse\\ParseRelation -->
<g id="node31" class="node"><title>\\Parse\\ParseRelation</title>
<polygon fill="none" stroke="black" points="552,-420 448,-420 448,-384 552,-384 552,-420"/>
<text text-anchor="middle" x="500" y="-399.2" font-family="Courier,monospace" font-size="11.00">ParseRelation</text>
</g>
<!-- \\Parse\\ParseSessionStorage -->
<g id="node32" class="node"><title>\\Parse\\ParseSessionStorage</title>
<polygon fill="none" stroke="black" points="572.5,-204 427.5,-204 427.5,-168 572.5,-168 572.5,-204"/>
<text text-anchor="middle" x="500" y="-183.2" font-family="Courier,monospace" font-size="11.00">ParseSessionStorage</text>
</g>
<!-- \\Parse\\ParseSessionStorage&#45;&gt;\\Parse\\ParseStorageInterface -->
<g id="edge17" class="edge"><title>\\Parse\\ParseSessionStorage&#45;&gt;\\Parse\\ParseStorageInterface</title>
<path fill="none" stroke="black" stroke-dasharray="1,5" d="M427.215,-177.752C403.607,-175.04 377.082,-171.992 352.388,-169.155"/>
<polygon fill="none" stroke="black" points="352.632,-165.66 342.298,-167.996 351.833,-172.615 352.632,-165.66"/>
</g>
<!-- \\Parse\\ParseAnalytics -->
<g id="node33" class="node"><title>\\Parse\\ParseAnalytics</title>
<polygon fill="none" stroke="black" points="555.5,-312 444.5,-312 444.5,-276 555.5,-276 555.5,-312"/>
<text text-anchor="middle" x="500" y="-291.2" font-family="Courier,monospace" font-size="11.00">ParseAnalytics</text>
</g>
<!-- \\Parse\\ParseBytes -->
<g id="node34" class="node"><title>\\Parse\\ParseBytes</title>
<polygon fill="none" stroke="black" points="305,-1464 221,-1464 221,-1428 305,-1428 305,-1464"/>
<text text-anchor="middle" x="263" y="-1443.2" font-family="Courier,monospace" font-size="11.00">ParseBytes</text>
</g>
<!-- \\Parse\\ParseBytes&#45;&gt;\\Parse\\Internal\\Encodable -->
<g id="edge18" class="edge"><title>\\Parse\\ParseBytes&#45;&gt;\\Parse\\Internal\\Encodable</title>
<path fill="none" stroke="black" stroke-dasharray="1,5" d="M220.863,-1439.72C207.503,-1435.79 193.651,-1429.4 184,-1419 129.233,-1360 88.3845,-1108.78 75.9447,-1024.04"/>
<polygon fill="none" stroke="black" points="79.4037,-1023.5 74.5056,-1014.11 72.476,-1024.51 79.4037,-1023.5"/>
</g>
<!-- \\Exception -->
<g id="node41" class="node"><title>\\Exception</title>
<ellipse fill="none" stroke="black" cx="71" cy="-18" rx="40.8928" ry="18"/>
<text text-anchor="middle" x="71" y="-14.3" font-family="Times,serif" font-size="14.00" fill="gray">xception</text>
</g>
<!-- \\Parse\\ParseException&#45;&gt;\\Exception -->
<g id="edge19" class="edge"><title>\\Parse\\ParseException&#45;&gt;\\Exception</title>
<path fill="none" stroke="black" d="M207.299,-60.726C177.715,-51.3836 141.73,-40.02 114.31,-31.3612"/>
<polygon fill="none" stroke="black" points="115.214,-27.9761 104.624,-28.3022 113.106,-34.6512 115.214,-27.9761"/>
</g>
<!-- \\Parse\\ParseSchema -->
<g id="node36" class="node"><title>\\Parse\\ParseSchema</title>
<polygon fill="none" stroke="black" points="545.5,-258 454.5,-258 454.5,-222 545.5,-222 545.5,-258"/>
<text text-anchor="middle" x="500" y="-237.2" font-family="Courier,monospace" font-size="11.00">ParseSchema</text>
</g>
<!-- \\Parse\\ParsePushStatus -->
<g id="node37" class="node"><title>\\Parse\\ParsePushStatus</title>
<polygon fill="none" stroke="black" points="559,-690 441,-690 441,-654 559,-654 559,-690"/>
<text text-anchor="middle" x="500" y="-669.2" font-family="Courier,monospace" font-size="11.00">ParsePushStatus</text>
</g>
<!-- \\Parse\\ParsePushStatus&#45;&gt;\\Parse\\ParseObject -->
<g id="edge21" class="edge"><title>\\Parse\\ParsePushStatus&#45;&gt;\\Parse\\ParseObject</title>
<path fill="none" stroke="black" d="M440.832,-685.799C431.459,-689.318 422.165,-693.663 414,-699 373.403,-725.534 382.253,-753.947 342,-781 334.741,-785.878 326.51,-789.965 318.183,-793.361"/>
<polygon fill="none" stroke="black" points="316.908,-790.101 308.788,-796.906 319.379,-796.65 316.908,-790.101"/>
</g>
<!-- \\Parse\\ParsePolygon -->
<g id="node38" class="node"><title>\\Parse\\ParsePolygon</title>
<polygon fill="none" stroke="black" points="312,-1410 214,-1410 214,-1374 312,-1374 312,-1410"/>
<text text-anchor="middle" x="263" y="-1389.2" font-family="Courier,monospace" font-size="11.00">ParsePolygon</text>
</g>
<!-- \\Parse\\ParsePolygon&#45;&gt;\\Parse\\Internal\\Encodable -->
<g id="edge22" class="edge"><title>\\Parse\\ParsePolygon&#45;&gt;\\Parse\\Internal\\Encodable</title>
<path fill="none" stroke="black" stroke-dasharray="1,5" d="M213.873,-1386.42C202.915,-1383.13 192.123,-1377.99 184,-1370 85.6361,-1273.2 72.8903,-1093.8 71.7933,-1024.42"/>
<polygon fill="none" stroke="black" points="75.2919,-1024.23 71.7059,-1014.26 68.2921,-1024.29 75.2919,-1024.23"/>
</g>
<!-- \\Parse\\ParseRole -->
<g id="node39" class="node"><title>\\Parse\\ParseRole</title>
<polygon fill="none" stroke="black" points="538.5,-528 461.5,-528 461.5,-492 538.5,-492 538.5,-528"/>
<text text-anchor="middle" x="500" y="-507.2" font-family="Courier,monospace" font-size="11.00">ParseRole</text>
</g>
<!-- \\Parse\\ParseRole&#45;&gt;\\Parse\\ParseObject -->
<g id="edge24" class="edge"><title>\\Parse\\ParseRole&#45;&gt;\\Parse\\ParseObject</title>
<path fill="none" stroke="black" d="M461.387,-513.973C444.879,-517.54 426.46,-524.28 414,-537 334.878,-617.771 420.078,-699.22 342,-781 335.39,-787.923 326.919,-793.072 318.008,-796.901"/>
<polygon fill="none" stroke="black" points="316.75,-793.634 308.623,-800.432 319.215,-800.186 316.75,-793.634"/>
</g>
</g>
</svg>
